<?xml version="1.0" encoding="UTF-8" standalone="no"?>
<!-- Created with Inkscape (http://www.inkscape.org/) -->

<svg
   width="155.25751mm"
   height="70.438675mm"
   viewBox="0 0 155.25751 70.438675"
   version="1.1"
   id="svg1"
   xml:space="preserve"
   inkscape:version="1.3.1 (9b9bdc1480, 2023-11-25, custom)"
   sodipodi:docname="sunspots.svg"
   xmlns:inkscape="http://www.inkscape.org/namespaces/inkscape"
   xmlns:sodipodi="http://sodipodi.sourceforge.net/DTD/sodipodi-0.dtd"
   xmlns="http://www.w3.org/2000/svg"
   xmlns:svg="http://www.w3.org/2000/svg"><sodipodi:namedview
     id="namedview1"
     pagecolor="#ffffff"
     bordercolor="#000000"
     borderopacity="0.25"
     inkscape:showpageshadow="2"
     inkscape:pageopacity="0.0"
     inkscape:pagecheckerboard="0"
     inkscape:deskcolor="#d1d1d1"
     inkscape:document-units="mm"
     inkscape:zoom="1.1789508"
     inkscape:cx="341.82936"
     inkscape:cy="136.5621"
     inkscape:window-width="1296"
     inkscape:window-height="704"
     inkscape:window-x="0"
     inkscape:window-y="0"
     inkscape:window-maximized="1"
     inkscape:current-layer="layer1" /><defs
     id="defs1"><filter
       id="highcharts-drop-shadow-2"><feDropShadow
         dx="1"
         dy="1"
         flood-color="#000000"
         flood-opacity="0.75"
         stdDeviation="2.5" /></filter><clipPath
       id="highcharts-vf5uiwx-28825-"><rect
         x="0"
         y="0"
         width="557"
         height="166"
         fill="none"
         id="rect1" /></clipPath><clipPath
       id="highcharts-vf5uiwx-29101-"><rect
         x="0"
         y="0"
         width="557"
         height="166"
         fill="none"
         id="rect2" /></clipPath><clipPath
       id="highcharts-vf5uiwx-29652-"><rect
         x="0"
         y="0"
         width="557"
         height="40"
         fill="none"
         id="rect3" /></clipPath></defs><g
     inkscape:label="Capa 1"
     inkscape:groupmode="layer"
     id="layer1"
     transform="translate(-28.976483,-107.57711)"><g
       class="highcharts-markers highcharts-series-0 highcharts-line-series"
       data-z-index="0.1"
       opacity="1"
       transform="matrix(0.26458333,0,0,0.26458333,30.24649,116.34529)"
       clip-path="none"
       aria-hidden="true"
       id="g69"
       style="font-family:Helvetica, Arial, sans-serif" /><g
       class="highcharts-markers highcharts-series-1 highcharts-line-series"
       data-z-index="0.1"
       opacity="1"
       transform="matrix(0.26458333,0,0,0.26458333,30.24649,116.34529)"
       clip-path="none"
       aria-hidden="true"
       id="g71"
       style="font-family:Helvetica, Arial, sans-serif" /><g
       class="highcharts-markers highcharts-series-2 highcharts-areaspline-series highcharts-navigator-series"
       data-z-index="0.1"
       opacity="1"
       transform="matrix(0.26458333,0,0,0.26458333,30.24649,174.02446)"
       clip-path="none"
       aria-hidden="true"
       id="g73"
       style="font-family:Helvetica, Arial, sans-serif" /><text
       x="106.97565"
       text-anchor="middle"
       class="highcharts-subtitle"
       data-z-index="4"
       style="color:#666666;font-size:2.54px;font-family:Helvetica, Arial, sans-serif;fill:#666666;stroke-width:0.264583"
       y="106.55571"
       aria-hidden="true"
       id="text75" /><text
       x="30.24649"
       text-anchor="start"
       class="highcharts-caption"
       data-z-index="4"
       style="color:#666666;font-size:2.54px;font-family:Helvetica, Arial, sans-serif;fill:#666666;stroke-width:0.264583"
       y="201.27655"
       aria-hidden="true"
       id="text76" /><g
       class="highcharts-axis-labels highcharts-yaxis-labels highcharts-navigator-yaxis"
       data-z-index="7"
       aria-hidden="true"
       id="g93"
       transform="matrix(0.26458333,0,0,0.26458333,27.600657,96.501544)"
       style="font-family:Helvetica, Arial, sans-serif" /><g
       id="g1"><rect
         fill="none"
         class="highcharts-plot-background"
         x="30.24649"
         y="116.34529"
         width="147.37291"
         height="43.920834"
         aria-hidden="true"
         id="rect5"
         style="font-family:Helvetica, Arial, sans-serif;stroke-width:0.264583" /><g
         class="highcharts-grid highcharts-xaxis-grid"
         data-z-index="1"
         aria-hidden="true"
         id="g10"
         transform="matrix(0.26458333,0,0,0.26458333,27.600657,96.501544)"
         style="font-family:Helvetica, Arial, sans-serif"><path
           fill="none"
           stroke="#e6e6e6"
           stroke-width="0"
           stroke-dasharray="none"
           data-z-index="1"
           class="highcharts-grid-line"
           d="M 449.5,75 V 241"
           opacity="1"
           id="path5" /><path
           fill="none"
           stroke="#e6e6e6"
           stroke-width="0"
           stroke-dasharray="none"
           data-z-index="1"
           class="highcharts-grid-line"
           d="M 52.5,75 V 241"
           opacity="1"
           id="path6" /><path
           fill="none"
           stroke="#e6e6e6"
           stroke-width="0"
           stroke-dasharray="none"
           data-z-index="1"
           class="highcharts-grid-line"
           d="M 152.5,75 V 241"
           opacity="1"
           id="path7" /><path
           fill="none"
           stroke="#e6e6e6"
           stroke-width="0"
           stroke-dasharray="none"
           data-z-index="1"
           class="highcharts-grid-line"
           d="M 251.5,75 V 241"
           opacity="1"
           id="path8" /><path
           fill="none"
           stroke="#e6e6e6"
           stroke-width="0"
           stroke-dasharray="none"
           data-z-index="1"
           class="highcharts-grid-line"
           d="M 350.5,75 V 241"
           opacity="1"
           id="path9" /><path
           fill="none"
           stroke="#e6e6e6"
           stroke-width="0"
           stroke-dasharray="none"
           data-z-index="1"
           class="highcharts-grid-line"
           d="M 549.5,75 V 241"
           opacity="1"
           id="path10" /></g><g
         class="highcharts-grid highcharts-yaxis-grid"
         data-z-index="1"
         aria-hidden="true"
         id="g18"
         transform="matrix(0.26458333,0,0,0.26458333,27.600657,96.501544)"
         style="font-family:Helvetica, Arial, sans-serif"><path
           fill="none"
           stroke="#e6e6e6"
           stroke-width="1"
           stroke-dasharray="none"
           data-z-index="1"
           class="highcharts-grid-line"
           d="M 10,241.5 H 567"
           opacity="1"
           id="path14" /><path
           fill="none"
           stroke="#e6e6e6"
           stroke-width="1"
           stroke-dasharray="none"
           data-z-index="1"
           class="highcharts-grid-line"
           d="M 10,200.5 H 567"
           opacity="1"
           id="path15" /><path
           fill="none"
           stroke="#e6e6e6"
           stroke-width="1"
           stroke-dasharray="none"
           data-z-index="1"
           class="highcharts-grid-line"
           d="M 10,158.5 H 567"
           opacity="1"
           id="path16" /><path
           fill="none"
           stroke="#e6e6e6"
           stroke-width="1"
           stroke-dasharray="none"
           data-z-index="1"
           class="highcharts-grid-line"
           d="M 10,117.5 H 567"
           opacity="1"
           id="path17" /><path
           fill="none"
           stroke="#e6e6e6"
           stroke-width="1"
           stroke-dasharray="none"
           data-z-index="1"
           class="highcharts-grid-line"
           d="M 10,74.5 H 567"
           opacity="1"
           id="path18" /></g><rect
         fill="none"
         class="highcharts-plot-border"
         data-z-index="1"
         stroke="#cccccc"
         stroke-width="0"
         x="30.24649"
         y="116.34529"
         width="147.37291"
         height="43.920834"
         aria-hidden="true"
         id="rect20"
         style="font-family:Helvetica, Arial, sans-serif" /><g
         class="highcharts-axis highcharts-xaxis"
         data-z-index="2"
         aria-hidden="true"
         id="g27"
         transform="matrix(0.26458333,0,0,0.26458333,27.600657,96.501544)"
         style="font-family:Helvetica, Arial, sans-serif"><path
           fill="none"
           class="highcharts-tick"
           stroke="#333333"
           stroke-width="1"
           d="m 449.5,241 v 10"
           opacity="1"
           id="path21" /><path
           fill="none"
           class="highcharts-tick"
           stroke="#333333"
           stroke-width="1"
           d="m 52.5,241 v 10"
           opacity="1"
           id="path22" /><path
           fill="none"
           class="highcharts-tick"
           stroke="#333333"
           stroke-width="1"
           d="m 152.5,241 v 10"
           opacity="1"
           id="path23" /><path
           fill="none"
           class="highcharts-tick"
           stroke="#333333"
           stroke-width="1"
           d="m 251.5,241 v 10"
           opacity="1"
           id="path24" /><path
           fill="none"
           class="highcharts-tick"
           stroke="#333333"
           stroke-width="1"
           d="m 350.5,241 v 10"
           opacity="1"
           id="path25" /><path
           fill="none"
           class="highcharts-tick"
           stroke="#333333"
           stroke-width="1"
           d="m 549.5,241 v 10"
           opacity="1"
           id="path26" /><path
           fill="none"
           class="highcharts-axis-line"
           stroke="#333333"
           stroke-width="1"
           data-z-index="7"
           d="M 10,241.5 H 567"
           id="path27" /></g><g
         class="highcharts-axis highcharts-yaxis"
         data-z-index="2"
         aria-hidden="true"
         id="g29"
         transform="matrix(0.38434656,0,0,0.38434656,-42.354674,78.751113)"
         style="font-family:Helvetica, Arial, sans-serif"><text
           x="577"
           data-z-index="7"
           text-anchor="middle"
           transform="rotate(90,577,158)"
           class="highcharts-axis-title"
           style="color:#666666;font-size:9.6px;fill:#666666"
           y="158"
           id="text28">Sunspot number</text><path
           fill="none"
           class="highcharts-axis-line"
           stroke="#333333"
           stroke-width="0"
           data-z-index="7"
           d="M 567,75 V 241"
           id="path29" /></g><g
         class="highcharts-plot-lines-3"
         data-z-index="3"
         aria-hidden="true"
         id="g58"
         transform="matrix(0.26458333,0,0,0.26458333,27.600657,96.501544)"
         style="font-family:Helvetica, Arial, sans-serif"><path
           fill="none"
           class="highcharts-plot-line "
           stroke="#808080"
           stroke-width="2"
           d="M 22,75 V 241"
           visibility="hidden"
           id="path34" /><path
           fill="none"
           class="highcharts-plot-line "
           stroke="#808080"
           stroke-width="2"
           d="M 45,75 V 241"
           visibility="hidden"
           id="path35" /><path
           fill="none"
           class="highcharts-plot-line "
           stroke="#808080"
           stroke-width="2"
           d="M 64,75 V 241"
           visibility="hidden"
           id="path36" /><path
           fill="none"
           class="highcharts-plot-line "
           stroke="#808080"
           stroke-width="2"
           d="M 83,75 V 241"
           visibility="hidden"
           id="path37" /><path
           fill="none"
           class="highcharts-plot-line "
           stroke="#808080"
           stroke-width="2"
           d="M 110,75 V 241"
           visibility="hidden"
           id="path38" /><path
           fill="none"
           class="highcharts-plot-line "
           stroke="#808080"
           stroke-width="2"
           d="M 135,75 V 241"
           visibility="hidden"
           id="path39" /><path
           fill="none"
           class="highcharts-plot-line "
           stroke="#808080"
           stroke-width="2"
           d="M 161,75 V 241"
           visibility="hidden"
           id="path40" /><path
           fill="none"
           class="highcharts-plot-line "
           stroke="#808080"
           stroke-width="2"
           d="M 182,75 V 241"
           visibility="hidden"
           id="path41" /><path
           fill="none"
           class="highcharts-plot-line "
           stroke="#808080"
           stroke-width="2"
           d="M 202,75 V 241"
           visibility="hidden"
           id="path42" /><path
           fill="none"
           class="highcharts-plot-line "
           stroke="#808080"
           stroke-width="2"
           d="M 227,75 V 241"
           visibility="hidden"
           id="path43" /><path
           fill="none"
           class="highcharts-plot-line "
           stroke="#808080"
           stroke-width="2"
           d="M 250,75 V 241"
           visibility="hidden"
           id="path44" /><path
           fill="none"
           class="highcharts-plot-line "
           stroke="#808080"
           stroke-width="2"
           d="M 274,75 V 241"
           visibility="hidden"
           id="path45" /><path
           fill="none"
           class="highcharts-plot-line "
           stroke="#808080"
           stroke-width="2"
           d="M 297,75 V 241"
           visibility="hidden"
           id="path46" /><path
           fill="none"
           class="highcharts-plot-line "
           stroke="#808080"
           stroke-width="2"
           d="M 321,75 V 241"
           visibility="hidden"
           id="path47" /><path
           fill="none"
           class="highcharts-plot-line "
           stroke="#808080"
           stroke-width="2"
           d="M 21,75 V 241"
           id="path48" /><path
           fill="none"
           class="highcharts-plot-line "
           stroke="#808080"
           stroke-width="2"
           d="M 71,75 V 241"
           id="path49" /><path
           fill="none"
           class="highcharts-plot-line "
           stroke="#808080"
           stroke-width="2"
           d="M 121,75 V 241"
           id="path50" /><path
           fill="none"
           class="highcharts-plot-line "
           stroke="#808080"
           stroke-width="2"
           d="M 173,75 V 241"
           id="path51" /><path
           fill="none"
           class="highcharts-plot-line "
           stroke="#808080"
           stroke-width="2"
           d="M 223,75 V 241"
           id="path52" /><path
           fill="none"
           class="highcharts-plot-line "
           stroke="#808080"
           stroke-width="2"
           d="M 275,75 V 241"
           id="path53" /><path
           fill="none"
           class="highcharts-plot-line "
           stroke="#808080"
           stroke-width="2"
           d="M 332,75 V 241"
           id="path54" /><path
           fill="none"
           class="highcharts-plot-line "
           stroke="#808080"
           stroke-width="2"
           d="M 384,75 V 241"
           id="path55" /><path
           fill="none"
           class="highcharts-plot-line "
           stroke="#808080"
           stroke-width="2"
           d="M 433,75 V 241"
           id="path56" /><path
           fill="none"
           class="highcharts-plot-line "
           stroke="#808080"
           stroke-width="2"
           d="M 495,75 V 241"
           id="path57" /><path
           fill="none"
           class="highcharts-plot-line "
           stroke="#808080"
           stroke-width="2"
           d="M 549,75 V 241"
           id="path58" /></g><text
         x="118.99113"
         class="highcharts-plot-line-label "
         data-z-index="3"
         transform="rotate(90)"
         style="color:#808080;font-weight:bold;font-size:2.54px;font-family:Helvetica, Arial, sans-serif;fill:#808080;stroke-width:0.264583"
         y="-34.21524"
         aria-hidden="true"
         id="text58">SC15</text><text
         x="118.99113"
         class="highcharts-plot-line-label "
         data-z-index="3"
         transform="rotate(90)"
         style="color:#808080;font-weight:bold;font-size:2.54px;font-family:Helvetica, Arial, sans-serif;fill:#808080;stroke-width:0.264583"
         y="-47.444408"
         aria-hidden="true"
         id="text59">SC16</text><text
         x="118.99113"
         class="highcharts-plot-line-label "
         data-z-index="3"
         transform="rotate(90)"
         style="color:#808080;font-weight:bold;font-size:2.54px;font-family:Helvetica, Arial, sans-serif;fill:#808080;stroke-width:0.264583"
         y="-60.673573"
         aria-hidden="true"
         id="text60">SC17</text><text
         x="118.99113"
         class="highcharts-plot-line-label "
         data-z-index="3"
         transform="rotate(90)"
         style="color:#808080;font-weight:bold;font-size:2.54px;font-family:Helvetica, Arial, sans-serif;fill:#808080;stroke-width:0.264583"
         y="-74.431908"
         aria-hidden="true"
         id="text61">SC18</text><text
         x="118.99113"
         class="highcharts-plot-line-label "
         data-z-index="3"
         transform="rotate(90)"
         style="color:#808080;font-weight:bold;font-size:2.54px;font-family:Helvetica, Arial, sans-serif;fill:#808080;stroke-width:0.264583"
         y="-87.661079"
         aria-hidden="true"
         id="text62">SC19</text><text
         x="118.99113"
         class="highcharts-plot-line-label "
         data-z-index="3"
         transform="rotate(90)"
         style="color:#808080;font-weight:bold;font-size:2.54px;font-family:Helvetica, Arial, sans-serif;fill:#808080;stroke-width:0.264583"
         y="-101.41941"
         aria-hidden="true"
         id="text63">SC20</text><text
         x="118.99113"
         class="highcharts-plot-line-label "
         data-z-index="3"
         transform="rotate(90)"
         style="color:#808080;font-weight:bold;font-size:2.54px;font-family:Helvetica, Arial, sans-serif;fill:#808080;stroke-width:0.264583"
         y="-116.50066"
         aria-hidden="true"
         id="text64">SC21</text><text
         x="118.99113"
         class="highcharts-plot-line-label "
         data-z-index="3"
         transform="rotate(90)"
         style="color:#808080;font-weight:bold;font-size:2.54px;font-family:Helvetica, Arial, sans-serif;fill:#808080;stroke-width:0.264583"
         y="-130.25899"
         aria-hidden="true"
         id="text65">SC22</text><text
         x="118.99113"
         class="highcharts-plot-line-label "
         data-z-index="3"
         transform="rotate(90)"
         style="color:#808080;font-weight:bold;font-size:2.54px;font-family:Helvetica, Arial, sans-serif;fill:#808080;stroke-width:0.264583"
         y="-143.22357"
         aria-hidden="true"
         id="text66">SC23</text><text
         x="118.99113"
         class="highcharts-plot-line-label "
         data-z-index="3"
         transform="rotate(90)"
         style="color:#808080;font-weight:bold;font-size:2.54px;font-family:Helvetica, Arial, sans-serif;fill:#808080;stroke-width:0.264583"
         y="-159.62773"
         aria-hidden="true"
         id="text67">SC24</text><text
         x="118.99113"
         class="highcharts-plot-line-label "
         data-z-index="3"
         transform="rotate(90)"
         style="color:#808080;font-weight:bold;font-size:2.54px;font-family:Helvetica, Arial, sans-serif;fill:#808080;stroke-width:0.264583"
         y="-173.91524"
         aria-hidden="true"
         id="text68">SC25</text><g
         class="highcharts-series highcharts-series-0 highcharts-line-series"
         data-z-index="0.1"
         opacity="1"
         transform="matrix(0.26458333,0,0,0.26458333,30.24649,116.34529)"
         clip-path="url(#highcharts-vf5uiwx-29101-)"
         aria-hidden="false"
         id="g68"
         style="font-family:Helvetica, Arial, sans-serif"><path
           fill="none"
           d="m -1.2020411,159.83725 2.480898,3.7765 2.4808979,0.27667 2.480898,-0.75392 2.4808979,2.10267 2.4808983,-0.48417 2.480898,-3.67275 2.480898,-3.486 2.480898,-20.12058 2.480898,-8.50059 2.480898,-6.98583 2.480897,9.06083 2.480898,-27.89491 2.480898,-18.045587 2.480898,29.008497 2.480898,-7.70516 2.480898,8.2585 2.480898,14.67716 2.480898,6.44634 2.480898,8.35533 2.480898,1.7015 2.480898,4.16383 2.480898,2.40009 2.480898,7.45616 2.480898,2.92575 2.480898,-1.61158 2.480898,-2.50383 2.480898,-8.48675 2.480898,-3.64509 2.480898,-22.40308 2.480898,-1.992 2.480898,-0.68475 2.480898,-10.34733 2.480898,14.21375 2.480898,-15.98442 2.480898,5.66475 2.480897,8.9225 2.480898,-5.6025 2.480898,18.37758 2.480898,9.15075 2.480898,1.83292 2.480903,7.24867 2.48089,1.245 2.4809,4.21225 2.4809,-0.83692 2.4809,5.04917 2.4809,-4.75175 2.48089,0.21441 2.4809,-11.07358 2.4809,-15.85992 2.4809,-14.82933 2.48089,-14.91233 2.4809,-18.218503 2.4809,3.403 2.4809,4.779416 2.4809,-6.308 2.48089,15.431087 2.4809,4.20533 2.4809,14.09617 2.4809,-3.34075 2.4809,18.73033 2.48089,-6.059 2.4809,8.23083 2.4809,12.92034 2.4809,1.2865 2.4809,4.28141 2.48089,6.53625 2.4809,-7.99566 2.4809,-6.8475 2.4809,-10.82459 2.4809,-22.97025 2.48089,-25.480997 2.4809,-10.796916 2.4809,-2.981084 2.4809,10.126 2.4809,0.72625 2.48089,-1.985083 2.4809,4.495833 2.4809,17.464587 2.4809,20.7085 2.4809,-7.83659 2.48089,11.96584 2.4809,17.62366 2.4809,-2.77358 2.4809,9.77325 2.4809,3.79725 2.48089,4.95925 2.4809,-2.49692 2.4809,-8.03025 2.4809,-20.86066 2.4809,-33.718753 2.48089,-33.379834 2.4809,2.690584 2.4809,-28.600417 2.4809,18.038667 2.4809,-1.300334 2.48089,6.273417 2.4809,19.1315 2.4809,14.580333 2.4809,6.349497 2.48089,28.80792 2.4809,4.54425 2.4809,3.22317 2.4809,7.98183 2.4809,1.4525 2.48089,0.40808 2.4809,8.58359 2.4809,3.09175 2.4809,-4.40592 h 2.4809 l 2.48089,-12.533 2.4809,-11.96583 2.4809,-19.24909 2.4809,-4.38516 2.4809,-5.88609 2.48089,1.79834 2.4809,-6.570837 2.4809,11.765247 2.4809,-11.045913 2.4809,11.336413 2.48089,15.68009 2.4809,1.95741 2.4809,-7.02733 2.4809,9.38592 2.4809,9.13 2.48089,8.37608 2.4809,-0.53258 2.4809,-3.04334 2.4809,15.11292 2.4809,-4.98692 2.48089,3.96325 2.4809,0.43575 2.4809,-4.43358 2.4809,-8.99858 2.4809,-28.11625 2.48089,-11.04592 2.4809,-21.047417 2.4809,-20.411083 2.4809,9.19225 2.4809,2.75975 2.48089,13.778 2.4809,-13.556667 2.4809,16.295667 2.4809,10.76233 2.4809,17.19484 2.48089,14.68408 2.4809,-7.98875 2.4809,26.30408 2.4809,2.57992 2.4809,1.83292 2.48089,1.826 2.4809,-0.747 2.4809,-2.77359 2.4809,-9.34441 2.48089,-16.932 2.4809,-30.682337 2.4809,-19.186833 2.4809,-4.426667 2.4809,13.162417 2.48089,-5.429583 2.4809,-2.3655 2.4809,0.18675 2.4809,21.033583 2.4809,15.90142 2.48089,9.04008 2.4809,13.3215 2.4809,5.36733 2.4809,2.075 2.4809,4.565 2.48089,5.146 2.4809,3.40992 2.4809,-0.664 2.4809,-1.77067 2.4809,-10.18825 2.48089,-11.39866 2.4809,-16.11584 2.4809,-6.43941 2.4809,-10.92834 2.4809,-11.481663 2.48089,2.63525 2.4809,6.031333 2.4809,-11.772167 2.4809,7.03425 2.4809,3.243917 2.48089,23.85558 2.4809,2.64217 2.4809,11.52317 2.4809,2.2825 2.4809,6.01058 2.48089,1.97125 2.4809,7.20717 2.4809,1.12741 2.4809,2.66292 2.4809,3.49983 2.48089,1.00984 2.4809,1.52166 2.4809,0.0277 2.4809,-2.075 2.4809,-4.95233 2.48089,-4.74484 2.4809,-11.12891 2.4809,-19.35975 2.4809,8.38991 2.48089,-0.43575 2.4809,-2.075 2.4809,-3.14708 2.4809,-9.31675 2.4809,5.26358 2.48089,13.75034 2.4809,3.6105 2.4809,7.968 2.4809,5.31891 2.4809,4.14309 2.48089,1.34183 2.4809,4.399 2.4809,2.15108 2.4809,-0.80233 2.4809,2.29633 2.48089,-0.98216 2.4809,-4.65492 2.4809,-1.39025 2.4809,-9.73867 2.4809,-13.71575 2.48089,-7.27633 2.4809,-15.47258 2.4809,0.97871"
           class="highcharts-graph"
           data-z-index="1"
           stroke="#000000"
           stroke-width="1"
           stroke-linejoin="round"
           stroke-linecap="round"
           aria-hidden="false"
           role="region"
           tabindex="-1"
           aria-label="Monthly mean total sunspot number, series 1 of 3. Line with 226 data points. Y axis, Sunspot number. X axis, Time."
           id="path68" /></g><g
         class="highcharts-series highcharts-series-1 highcharts-line-series"
         data-z-index="0.1"
         opacity="1"
         transform="matrix(0.26458333,0,0,0.26458333,30.24649,116.34529)"
         clip-path="url(#highcharts-vf5uiwx-29101-)"
         aria-hidden="false"
         id="g70"
         style="font-family:Helvetica, Arial, sans-serif"><path
           fill="none"
           d="m -1.2020411,160.90587 2.480898,2.12688 2.4808979,0.7055 2.480898,-0.13833 2.4808979,0.98908 2.4808983,-0.22825 2.480898,-2.79433 2.480898,-7.46309 2.480898,-15.49333 2.480898,-9.39283 2.480898,-1.50092 2.480897,-5.2705 2.480898,-18.16317 2.480898,-9.565747 2.480898,9.697167 2.480898,8.23083 2.480898,3.91484 2.480898,8.30691 2.480898,12.75434 2.480898,5.72008 2.480898,2.30325 2.480898,3.31308 2.480898,5.478 2.480898,5.07684 2.480898,2.08883 2.480898,0.0415 2.480898,-4.80017 2.480898,-4.91083 2.480898,-8.051 2.480898,-16.1435 2.480898,-6.3495 2.480898,-2.80817 2.480898,-2.075 2.480898,2.13725 2.480898,-5.36041 2.480898,2.34475 2.480897,7.45616 2.480898,0.17984 2.480898,10.18825 2.480898,11.39866 2.480898,3.99092 2.480903,5.19442 2.48089,2.93958 2.4809,1.33492 2.4809,2.57991 2.4809,2.0335 2.4809,-1.59083 2.48089,-3.66583 2.4809,-8.81875 2.4809,-16.25417 2.4809,-13.3215 2.48089,-16.66917 2.4809,-16.330247 2.4809,2.932667 2.4809,1.936667 2.4809,2.483083 2.48089,5.671667 2.4809,9.192253 2.4809,9.22683 2.4809,4.68258 2.4809,7.0965 2.48089,3.1955 2.4809,8.32075 2.4809,7.97492 2.4809,4.03933 2.4809,4.72409 2.48089,2.49 2.4809,-3.84567 2.4809,-9.24758 2.4809,-12.60217 2.4809,-20.11367 2.48089,-20.196663 2.4809,-15.83225 2.4809,1.134333 2.4809,4.454333 2.4809,-1.92975 2.48089,4.807084 2.4809,5.927583 2.4809,13.22467 2.4809,15.65241 2.4809,2.99492 2.48089,6.27342 2.4809,12.76125 2.4809,5.561 2.4809,5.09066 2.4809,5.38809 2.48089,3.4445 2.4809,-2.20642 2.4809,-8.59742 2.4809,-21.75291 2.4809,-31.187253 2.48089,-24.166834 2.4809,-14.186083 2.4809,-11.004417 2.4809,0.719334 2.4809,7.705166 2.48089,7.027334 2.4809,15.846083 2.4809,13.515167 2.4809,14.905413 2.48089,16.61384 2.4809,9.30291 2.4809,6.28725 2.4809,4.731 2.4809,1.94359 2.48089,2.13033 2.4809,6.49475 2.4809,2.44158 2.4809,-1.7845 2.4809,-3.53441 2.48089,-9.7525 2.4809,-15.98442 2.4809,-11.62 2.4809,-7.636 2.4809,-5.29125 2.48089,-1.56317 2.4809,0.13834 2.4809,1.46633 2.4809,-0.3735 2.4809,6.43942 2.48089,12.8235 2.4809,3.901 2.4809,-3.237 2.4809,5.94141 2.4809,10.34734 2.48089,5.85841 2.4809,-0.0415 2.4809,2.15109 2.4809,6.27341 2.4809,2.55917 2.48089,1.30725 2.4809,-0.51183 2.4809,-4.32984 2.4809,-12.47075 2.4809,-18.43291 2.48089,-20.252 2.4809,-17.68592 2.4809,-11.55775 2.4809,-0.6225 2.4809,6.342583 2.48089,3.147084 2.4809,1.749916 2.4809,8.881 2.4809,14.711747 2.4809,11.87592 2.48089,9.88392 2.4809,8.12016 2.4809,11.65459 2.4809,8.09941 2.4809,1.27959 2.48089,1.76375 2.4809,-0.18675 2.4809,-4.57192 2.4809,-9.01242 2.48089,-17.34008 2.4809,-26.17958 2.4809,-19.415087 2.4809,-4.551166 2.4809,5.1875 2.48089,1.743 2.4809,-3.88025 2.4809,2.88425 2.4809,18.550503 2.4809,15.91525 2.48089,9.06083 2.4809,10.68625 2.4809,6.79217 2.4809,4.06008 2.4809,3.75575 2.48089,4.87625 2.4809,2.50383 2.4809,0.25592 2.4809,-3.32692 2.4809,-8.49366 2.48089,-13.45292 2.4809,-10.49258 2.4809,-11.51625 2.4809,-11.19117 2.4809,-7.808917 2.48089,1.72225 2.4809,3.403 2.4809,-7.186416 2.4809,0.93375 2.4809,11.786003 2.48089,12.66441 2.4809,10.63784 2.4809,7.15875 2.4809,5.47108 2.4809,4.1085 2.48089,4.12233 2.4809,4.73792 2.4809,1.992 2.4809,2.89117 2.4809,2.905 2.48089,1.76375 2.4809,1.01675 2.4809,-0.0761 2.4809,-2.67675 2.4809,-4.1085 2.48089,-5.54025 2.4809,-10.97675 2.4809,-11.75141 2.4809,-2.67675 2.48089,3.32 2.4809,-0.2075 2.4809,-6.9305 2.4809,-4.14309 2.4809,5.0215 2.48089,8.466 2.4809,6.96509 2.4809,6.39791 2.4809,6.48784 2.4809,3.27158 2.48089,3.05717 2.4809,3.24391 2.4809,1.34875 2.4809,0.88534 2.4809,0.72625 2.48089,-0.59484 2.4809,-3.09866 2.4809,-4.59267 2.4809,-8.48675 2.4809,-11.48858 2.48089,-10.90067 2.4809,-8.964"
           class="highcharts-graph"
           data-z-index="1"
           stroke="#ff0000"
           stroke-width="2"
           stroke-linejoin="round"
           stroke-linecap="round"
           aria-hidden="false"
           role="region"
           tabindex="-1"
           aria-label="13-month smoothed monthly total sunspot number, series 2 of 3. Line with 226 data points. Y axis, Sunspot number. X axis, Time."
           id="path69"><rect
             x="557"
             y="0"
             width="1"
             height="1"
             fill="none"
             class="highcharts-a11y-mock-point"
             opacity="0"
             fill-opacity="0"
             stroke-opacity="0"
             tabindex="-1"
             style="outline: none;"
             aria-hidden="true"
             id="rect69" /></path></g><g
         class="highcharts-axis-labels highcharts-xaxis-labels"
         data-z-index="7"
         aria-hidden="true"
         id="g82"
         transform="matrix(0.26458333,0,0,0.26458333,27.600657,96.501544)"
         style="font-family:Helvetica, Arial, sans-serif"><text
           x="450.3978"
           style="color:#333333;font-size:9.6px;fill:#333333"
           text-anchor="middle"
           y="267"
           opacity="1"
           id="text77">2000</text><text
           x="53.454121"
           style="color:#333333;font-size:9.6px;fill:#333333"
           text-anchor="middle"
           y="267"
           opacity="1"
           id="text78">1920</text><text
           x="152.69005"
           style="color:#333333;font-size:9.6px;fill:#333333"
           text-anchor="middle"
           y="267"
           opacity="1"
           id="text79">1940</text><text
           x="251.92596"
           style="color:#333333;font-size:9.6px;fill:#333333"
           text-anchor="middle"
           y="267"
           opacity="1"
           id="text80">1960</text><text
           x="351.16187"
           style="color:#333333;font-size:9.6px;fill:#333333"
           text-anchor="middle"
           y="267"
           opacity="1"
           id="text81">1980</text><text
           x="549.63373"
           style="color:#333333;font-size:9.6px;fill:#333333"
           text-anchor="middle"
           y="267"
           opacity="1"
           id="text82">2020</text></g><text
         x="177.6194"
         style="color:#333333;font-size:2.54px;font-family:Helvetica, Arial, sans-serif;fill:#333333;stroke-width:0.264583"
         text-anchor="end"
         y="159.73695"
         opacity="1"
         id="text88">0</text><text
         x="177.6194"
         style="color:#333333;font-size:2.54px;font-family:Helvetica, Arial, sans-serif;fill:#333333;stroke-width:0.264583"
         text-anchor="end"
         y="148.88904"
         opacity="1"
         id="text89">100</text><text
         x="177.6194"
         style="color:#333333;font-size:2.54px;font-family:Helvetica, Arial, sans-serif;fill:#333333;stroke-width:0.264583"
         text-anchor="end"
         y="137.77655"
         opacity="1"
         id="text90">200</text><text
         x="177.6194"
         style="color:#333333;font-size:2.54px;font-family:Helvetica, Arial, sans-serif;fill:#333333;stroke-width:0.264583"
         text-anchor="end"
         y="126.92863"
         opacity="1"
         id="text91">300</text><g
         class="highcharts-input-group"
         transform="matrix(0.31912677,0,0,0.31912677,127.27919,110.67472)"
         aria-hidden="true"
         id="g103"
         style="font-family:Helvetica, Arial, sans-serif"><g
           class="highcharts-label highcharts-range-label"
           id="g99"><text
             x="0"
             data-z-index="1"
             y="11"
             style="color:#666666;font-size:9.6px;font-family:Helvetica, Arial, sans-serif;fill:#666666"
             id="text98" /></g><g
           class="highcharts-label highcharts-range-input"
           id="g100"><rect
             fill="none"
             class="highcharts-label-box"
             x="0.5"
             y="0.5"
             width="69"
             height="21"
             stroke="none"
             stroke-width="1"
             id="rect99" /><text
             x="2"
             data-z-index="1"
             y="14.5"
             style="color:#334eff;font-size:9.6px;font-family:Helvetica, Arial, sans-serif;fill:#334eff"
             id="text99">29 Mar. 1911</text></g><g
           class="highcharts-label highcharts-range-label"
           transform="translate(74)"
           id="g101"><text
             x="2"
             data-z-index="1"
             y="14.5"
             style="color:#666666;font-size:9.6px;font-family:Helvetica, Arial, sans-serif;fill:#666666"
             id="text100">→</text></g><g
           class="highcharts-label highcharts-range-input"
           transform="translate(94)"
           id="g102"><rect
             fill="none"
             class="highcharts-label-box"
             x="0.5"
             y="0.5"
             width="62"
             height="21"
             stroke="none"
             stroke-width="1"
             id="rect101" /><text
             x="2"
             data-z-index="1"
             y="14.5"
             style="color:#334eff;font-size:9.6px;font-family:Helvetica, Arial, sans-serif;fill:#334eff"
             id="text101">1 Oct. 2023</text></g></g><g
         class="highcharts-legend highcharts-no-tooltip"
         data-z-index="7"
         transform="matrix(0.30805062,0,0,0.30805062,28.976483,166.88056)"
         aria-hidden="true"
         id="g109"
         style="font-family:Helvetica, Arial, sans-serif"><rect
           fill="none"
           class="highcharts-legend-box"
           rx="0"
           ry="0"
           stroke="#999999"
           stroke-width="0"
           x="0"
           y="0"
           width="504"
           height="29"
           id="rect104" /><g
           data-z-index="1"
           id="g108"><g
             id="g107"><g
               class="highcharts-legend-item highcharts-line-series highcharts-color-undefined highcharts-series-0"
               data-z-index="1"
               transform="translate(8,3)"
               id="g105"><path
                 fill="none"
                 class="highcharts-graph"
                 stroke-width="1"
                 stroke-linecap="round"
                 d="m 0.5,13 h 15"
                 stroke="#000000"
                 id="path104" /><text
                 x="21"
                 style="color:#333333;font-size:9.6px;text-decoration:none;text-decoration-line:none;fill:#333333"
                 text-anchor="start"
                 data-z-index="2"
                 y="16"
                 id="text104">Monthly mean total sunspot number</text></g><g
               class="highcharts-legend-item highcharts-line-series highcharts-color-undefined highcharts-series-1"
               data-z-index="1"
               transform="translate(226.60001,3)"
               id="g106"><path
                 fill="none"
                 class="highcharts-graph"
                 stroke-width="2"
                 stroke-linecap="round"
                 d="M 1,13 H 15"
                 stroke="#ff0000"
                 id="path105" /><text
                 x="21"
                 y="16"
                 style="color:#333333;font-size:9.6px;text-decoration:none;text-decoration-line:none;fill:#333333"
                 text-anchor="start"
                 data-z-index="2"
                 id="text105">13-month smoothed monthly total sunspot number</text></g></g></g></g><text
         x="181.62793"
         class="highcharts-credits"
         text-anchor="end"
         data-z-index="8"
         style="color:#999999;font-size:2.87462px;font-family:Helvetica, Arial, sans-serif;fill:#999999;stroke-width:0.399253"
         y="177.38911"
         aria-label="Chart credits: WDC-SILSO, Royal Observatory of Belgium, Brussels"
         aria-hidden="false"
         id="text113">WDC-SILSO, Royal Observatory of Belgium, Brussels</text></g></g></svg>
